<?xml version="1.0" encoding="iso-8859-1"?>
<!-- Generator: Adobe Illustrator 19.0.0, SVG Export Plug-In . SVG Version: 6.00 Build 0)  -->
<svg version="1.1" id="Layer_1" xmlns="http://www.w3.org/2000/svg" xmlns:xlink="http://www.w3.org/1999/xlink" x="0px" y="0px"
	 viewBox="0 0 512 512" style="enable-background:new 0 0 512 512;" xml:space="preserve">
<g transform="translate(-1)">
	<path style="fill:#88C057;" d="M513,84c0,4.416-3.584,8-8,8c-4.416,0-8-3.584-8-8s3.584-8,8-8C509.416,76,513,79.584,513,84"/>
	<polygon style="fill:#CE9D74;" points="81,308 161,452 1,452 	"/>
	<polygon style="fill:#F9DA49;" points="345.859,452 256.971,300 381.707,300 465.003,452 	"/>
	<polygon style="fill:#EBC3A7;" points="1,452 161,452 134.336,404 27.664,404 	"/>
	<g>
		<path style="fill:#FFFFFF;" d="M49,436c-2.048,0-4.096-0.784-5.656-2.344l-8-8c-3.128-3.128-3.128-8.184,0-11.312
			c3.128-3.128,8.184-3.128,11.312,0l8,8c3.128,3.128,3.128,8.184,0,11.312C53.096,435.216,51.048,436,49,436"/>
		<path style="fill:#FFFFFF;" d="M73,444c-2.048,0-4.096-0.784-5.656-2.344c-3.128-3.128-3.128-8.184,0-11.312l8-8
			c3.128-3.128,8.184-3.128,11.312,0s3.128,8.184,0,11.312l-8,8C77.096,443.216,75.048,444,73,444"/>
		<path style="fill:#FFFFFF;" d="M113,436c-2.048,0-4.096-0.784-5.656-2.344l-8-8c-3.128-3.128-3.128-8.184,0-11.312
			s8.184-3.128,11.312,0l8,8c3.128,3.128,3.128,8.184,0,11.312C117.096,435.216,115.048,436,113,436"/>
	</g>
	<path style="fill:#A46F3E;" d="M261.647,308h-33.472l27.296,50.896c4.064,8.2-0.32,18.072-9.128,20.552
		c-6.656,1.88-13.712-1.168-16.92-7.304L193.327,308h-39.632l26.096,50.608c4.144,8.256-0.304,18.24-9.216,20.664l-0.784,0.216
		c-6.624,1.8-13.616-1.248-16.792-7.344L118.735,308H80.999l80,144h184.864L261.647,308z"/>
	<g>
		<path style="fill:#724724;" d="M229.427,372.146c3.2,6.136,10.264,9.184,16.92,7.304c8.808-2.48,13.192-12.352,9.128-20.552
			l-18.72-34.896h-34.424L229.427,372.146z"/>
		<path style="fill:#724724;" d="M153,372.146c3.176,6.088,10.168,9.144,16.792,7.336l0.784-0.208
			c8.912-2.432,13.36-12.416,9.208-20.664l-17.84-34.608H127.28L153,372.146z"/>
	</g>
	<polygon style="fill:#FFFFFF;" points="345,396 353,348 401,396 	"/>
	<polygon style="fill:#F85B57;" points="409,60 433,84 409,108 385,84 	"/>
	<path style="fill:#F9EB80;" d="M217,68c0,17.688-14.312,32-32,32c17.688,0,32,14.312,32,32c0-17.688,14.312-32,32-32
		C231.312,100,217,85.688,217,68"/>
	<g>
		<path style="fill:#583E68;" d="M305,236c-4.416,0-8-3.576-8-8v-32c0-4.424,3.584-8,8-8s8,3.576,8,8v32
			C313,232.424,309.416,236,305,236"/>
		<path style="fill:#583E68;" d="M321,220h-32c-4.416,0-8-3.576-8-8c0-4.424,3.584-8,8-8h32c4.416,0,8,3.576,8,8
			C329,216.424,325.416,220,321,220"/>
	</g>
	<path style="fill:#CC6329;" d="M129,204c0,4.416-3.584,8-8,8s-8-3.584-8-8c0-4.416,3.584-8,8-8S129,199.584,129,204"/>
	<path style="fill:#88C057;" d="M49,100c0,4.416-3.584,8-8,8s-8-3.584-8-8s3.584-8,8-8S49,95.584,49,100"/>
</g>
<g>
</g>
<g>
</g>
<g>
</g>
<g>
</g>
<g>
</g>
<g>
</g>
<g>
</g>
<g>
</g>
<g>
</g>
<g>
</g>
<g>
</g>
<g>
</g>
<g>
</g>
<g>
</g>
<g>
</g>
</svg>
